<svg xmlns="http://www.w3.org/2000/svg" xmlns:xlink="http://www.w3.org/1999/xlink" id="&#x30EC;&#x30A4;&#x30E4;&#x30FC;_1" x="0px" y="0px" viewBox="0 0 188.8 188" style="enable-background:new 0 0 188.8 188;" xml:space="preserve"><style type="text/css">	.st0{fill:#FFFFFF;}</style><g>	<path class="st0" d="M19.5,150.4h1.1l0.1-0.1c0.6-0.6,0.8-1.8,0.2-2.3C9.4,132.2,3.3,113.6,3.3,94.1C3.3,44,44,3.3,94.1,3.3   c20.1,0,39.1,6.5,55.1,18.7c0.8,0.5,1.7,0.4,2.3-0.3l0.1-0.1c0.5-0.8,0.4-1.7-0.3-2.3C134.5,6.7,114.8,0,94.1,0   C42.2,0,0,42.2,0,94.1c0,20,6.3,39.3,18.3,55.8C18.6,150.1,18.9,150.4,19.5,150.4z"></path>	<path class="st0" d="M168.8,35.8c-0.6-0.6-1.9-0.8-2.4-0.2c-0.3,0.3-0.5,0.7-0.5,1.1c-0.1,0.5,0,1,0.3,1.2   c12.5,16.3,19.1,35.6,19.1,55.9c0,50.1-40.7,90.8-90.8,90.8c-20.2,0-39.3-6.5-55.4-18.7c-0.8-0.5-1.7-0.4-2.3,0.3l-0.1,0.1   c-0.5,0.8-0.4,1.7,0.3,2.3C53.5,181.3,73.2,188,94.1,188c51.4,0,93.9-42.3,94.7-94.3C188.8,72.5,181.9,52.5,168.8,35.8z"></path>	<path class="st0" d="M181.1,8.7c0-0.5-0.2-0.9-0.4-1.2c-0.6-0.6-1.8-0.6-2.4,0L7.5,177.9c-0.3,0.3-0.4,0.7-0.4,1.2s0.2,0.9,0.4,1.2   c0.3,0.3,0.8,0.5,1.2,0.5c0.4,0,0.8,0,1.2-0.3L180.7,9.9C180.9,9.6,181.1,9.1,181.1,8.7z"></path>	<polygon class="st0" points="73.8,49.3 73.8,45.2 54.5,45.2 54.5,45.1 50.2,45.1 50.2,81.5 73.8,81.5 73.8,77.4 54.5,77.4    54.5,65.4 69.4,65.4 69.4,61.3 54.5,61.3 54.5,49.3  "></polygon>	<path class="st0" d="M122.2,110.3v0.3h-2.7v36.3h4.3v-11.8l6.4-0.4c4.2,0,7.4-1.1,9.7-3.2c2.3-1.9,3.5-5,3.5-9.2c0-4-1.1-6.8-3.5-9   c-2.2-2-5.5-3-9.7-3H122.2z M136.8,116.6c1.6,1.4,2.3,3.3,2.3,5.9c0,2.6-0.8,4.8-2.4,6.3c-1.4,1.4-3.6,2.2-6.5,2.2h-6.4v-16.6h6.4   C132.9,114.4,135.1,115.1,136.8,116.6z"></path></g></svg>